<svg width="153" height="153" viewBox="0 0 153 153" fill="none" xmlns="http://www.w3.org/2000/svg">
<rect width="153" height="153" rx="38" fill="url(#paint0_linear_151_145)"/>
<path d="M87.1901 52.6602C86.8431 51.7799 86.054 51.7799 85.707 52.6602L84.6016 55.0141C84.4957 55.2828 84.283 55.4956 84.0142 55.6016L81.6602 56.7483C80.7799 57.0955 80.7799 57.8844 81.6602 58.2315L84.0142 59.3984C84.283 59.5044 84.4957 59.7172 84.6016 59.9859L85.846 62.3398C86.1931 63.2201 87.1529 63.2201 87.5 62.3398L88.3984 59.9859C88.5043 59.7172 88.717 59.5044 88.9858 59.3984L91.3398 58.2315C92.2201 57.8844 92.2201 57.0955 91.3398 56.7483L88.9858 55.6016C88.717 55.4956 88.5043 55.2828 88.3984 55.0141L87.1901 52.6602Z" fill="white"/>
<path d="M87.1901 52.6602C86.8431 51.7799 86.054 51.7799 85.707 52.6602L84.6016 55.0141C84.4957 55.2828 84.283 55.4956 84.0142 55.6016L81.6602 56.7483C80.7799 57.0955 80.7799 57.8844 81.6602 58.2315L84.0142 59.3984C84.283 59.5044 84.4957 59.7172 84.6016 59.9859L85.846 62.3398C86.1931 63.2201 87.1529 63.2201 87.5 62.3398L88.3984 59.9859C88.5043 59.7172 88.717 59.5044 88.9858 59.3984L91.3398 58.2315C92.2201 57.8844 92.2201 57.0955 91.3398 56.7483L88.9858 55.6016C88.717 55.4956 88.5043 55.2828 88.3984 55.0141L87.1901 52.6602Z" fill="white"/>
<path fill-rule="evenodd" clip-rule="evenodd" d="M51.9692 43.1848C56.1853 39.6023 56.8224 40.9749 56.0987 46.3712C54.5892 57.6264 59.0442 74.6301 68.905 80.4084C78.8159 86.2165 94.8895 85.9359 105.016 79.6463C107.962 77.8162 112.635 74.3172 111.836 78.0718C111.812 78.1828 111.788 78.2935 111.764 78.4046C110.311 84.9524 107.089 91.5386 102.123 96.6021C96.8298 101.999 87.5562 105.56 80.0631 107.29L80.0595 107.291C71.3441 109.293 64.6833 108.617 56.7552 104.925C48.827 101.233 42.5662 95.0027 39.0466 87.3018C35.5269 79.6009 34.9677 70.9094 37.4647 62.7173C39.8318 54.9511 45.2435 48.0912 51.8718 43.2556L51.9692 43.1848Z" fill="white"/>
<path d="M99.838 38.2197L100.627 39.8925C100.682 40.0089 100.789 40.0895 100.911 40.1081L102.677 40.3764C102.986 40.4234 103.109 40.8207 102.886 41.0487L101.608 42.3507C101.519 42.4413 101.479 42.5718 101.5 42.6996L101.801 44.5382C101.854 44.8602 101.531 45.1058 101.254 44.9538L99.6754 44.0858C99.5656 44.0255 99.4344 44.0255 99.3246 44.0858L97.7455 44.9538C97.469 45.1059 97.1457 44.8602 97.1986 44.5382L97.5001 42.6996C97.5211 42.5718 97.4805 42.4413 97.3917 42.3507L96.1142 41.0487C95.8905 40.8206 96.0139 40.4233 96.3232 40.3764L98.0887 40.1081C98.2115 40.0895 98.3176 40.0089 98.3725 39.8925L99.162 38.2197C99.3002 37.9268 99.6997 37.9268 99.838 38.2197Z" fill="white"/>
<path d="M120.483 60.5186L121.611 62.8039C121.689 62.9629 121.841 63.073 122.016 63.0985L124.538 63.465C124.98 63.5292 125.157 64.072 124.837 64.3834L123.012 66.1623C122.885 66.286 122.827 66.4643 122.857 66.6389L123.288 69.1508C123.363 69.5907 122.902 69.9262 122.507 69.7186L120.251 68.5328C120.094 68.4504 119.906 68.4504 119.75 68.5328L117.494 69.7186C117.099 69.9264 116.637 69.5907 116.712 69.1508L117.143 66.6389C117.173 66.4643 117.115 66.286 116.988 66.1623L115.163 64.3834C114.844 64.0718 115.02 63.529 115.462 63.465L117.984 63.0985C118.159 63.073 118.311 62.9629 118.39 62.8039L119.517 60.5186C119.715 60.1183 120.285 60.1183 120.483 60.5186Z" fill="white"/>
<path d="M81.483 16.5186L82.6109 18.8039C82.6893 18.9629 82.841 19.073 83.0164 19.0985L85.5385 19.465C85.9803 19.5292 86.1566 20.072 85.837 20.3834L84.012 22.1623C83.8852 22.286 83.8272 22.4643 83.8572 22.6389L84.288 25.1508C84.3635 25.5907 83.9017 25.9262 83.5066 25.7186L81.2508 24.5328C81.094 24.4504 80.9065 24.4504 80.7496 24.5328L78.4939 25.7186C78.0988 25.9264 77.637 25.5907 77.7125 25.1508L78.1432 22.6389C78.1733 22.4643 78.1153 22.286 77.9884 22.1623L76.1634 20.3834C75.8439 20.0718 76.0201 19.529 76.4619 19.465L78.9841 19.0985C79.1595 19.073 79.3111 18.9629 79.3896 18.8039L80.5174 16.5186C80.7148 16.1183 81.2855 16.1183 81.483 16.5186Z" fill="white"/>
<path d="M130.483 33.5186L131.611 35.8039C131.689 35.9629 131.841 36.073 132.016 36.0985L134.538 36.465C134.98 36.5292 135.157 37.072 134.837 37.3834L133.012 39.1623C132.885 39.286 132.827 39.4643 132.857 39.6389L133.288 42.1508C133.363 42.5907 132.902 42.9262 132.507 42.7186L130.251 41.5328C130.094 41.4504 129.906 41.4504 129.75 41.5328L127.494 42.7186C127.099 42.9264 126.637 42.5907 126.712 42.1508L127.143 39.6389C127.173 39.4643 127.115 39.286 126.988 39.1623L125.163 37.3834C124.844 37.0718 125.02 36.529 125.462 36.465L127.984 36.0985C128.159 36.073 128.311 35.9629 128.39 35.8039L129.517 33.5186C129.715 33.1183 130.285 33.1183 130.483 33.5186Z" fill="white"/>
<path d="M111.611 19.9212L112.739 22.3109C112.817 22.4771 112.969 22.5923 113.144 22.6189L115.666 23.0021C116.108 23.0693 116.284 23.6368 115.965 23.9625L114.14 25.8226C114.013 25.9519 113.955 26.1384 113.985 26.321L114.416 28.9476C114.491 29.4076 114.029 29.7583 113.634 29.5413L111.379 28.3013C111.222 28.2151 111.034 28.2151 110.877 28.3013L108.622 29.5413C108.226 29.7586 107.765 29.4076 107.84 28.9476L108.271 26.321C108.301 26.1384 108.243 25.9519 108.116 25.8226L106.291 23.9625C105.972 23.6366 106.148 23.0691 106.59 23.0021L109.112 22.6189C109.287 22.5923 109.439 22.4771 109.517 22.3109L110.645 19.9212C110.842 19.5026 111.413 19.5026 111.611 19.9212Z" fill="white"/>
<path d="M36 109H113" stroke="white" stroke-width="3" stroke-linecap="round"/>
<path d="M55 133H94" stroke="white" stroke-width="3" stroke-linecap="round"/>
<path d="M47 121H74.5L102 121" stroke="white" stroke-width="3" stroke-linecap="round"/>
<defs>
<linearGradient id="paint0_linear_151_145" x1="76.5" y1="0" x2="76.5" y2="153" gradientUnits="userSpaceOnUse">
<stop offset="0.646666" stop-color="#312A4E"/>
<stop offset="1" stop-color="#704764"/>
</linearGradient>
</defs>
</svg>
